<svg width="26" height="25" viewBox="0 0 26 25" fill="none" xmlns="http://www.w3.org/2000/svg">
<path d="M13.0001 14.675C11.7952 14.675 10.8162 13.7 10.8162 12.5C10.8162 11.3 11.7869 10.325 13.0001 10.325C14.1967 10.325 15.184 11.3 15.184 12.5C15.184 13.7 14.205 14.675 13.0001 14.675ZM13.0001 9.17505C11.1593 9.17505 9.66992 10.6584 9.66992 12.5C9.66992 14.3334 11.1677 15.825 13.0001 15.825C14.8409 15.825 16.3387 14.3334 16.3387 12.5C16.3387 10.6667 14.8409 9.17505 13.0001 9.17505Z" fill="#111111"/>
<path d="M16.6736 7.96667C16.2469 7.96667 15.9038 8.30834 15.9038 8.73334C15.9038 9.15834 16.2469 9.50001 16.6736 9.50001C17.1003 9.50001 17.4434 9.15834 17.4434 8.73334C17.4434 8.30834 17.1003 7.96667 16.6736 7.96667Z" fill="#111111"/>
<path d="M19.418 15.2167C19.418 17.2333 17.7612 18.8833 15.7196 18.8833H10.2808C8.2392 18.8833 6.58246 17.2333 6.58246 15.225V9.76667C6.58246 7.75 8.2392 6.1 10.2808 6.1H15.7196C17.7612 6.1 19.418 7.75 19.418 9.76667V15.2167ZM13.0002 0.125C6.13899 0.125 0.574707 5.66667 0.574707 12.5C0.574707 19.3333 6.13899 24.875 13.0002 24.875C19.8614 24.875 25.4257 19.3333 25.4257 12.5C25.4257 5.66667 19.8614 0.125 13.0002 0.125Z" fill="#111111"/>
</svg>
