<svg width="25" height="25" viewBox="0 0 25 25" fill="none" xmlns="http://www.w3.org/2000/svg">
<path d="M18.4416 15.1C17.0694 13.8333 17.2535 14.0333 18.9102 11.8417C19.9143 10.5083 20.3159 9.69167 20.1904 9.34167C20.0732 9.00833 19.3286 9.1 19.3286 9.1L16.8686 9.11667C16.8686 9.11667 16.6845 9.09167 16.5506 9.175C16.4167 9.25 16.333 9.44167 16.333 9.44167C16.333 9.44167 15.9481 10.475 15.4294 11.35C14.3332 13.2 13.8981 13.3 13.7141 13.1833C13.2957 12.9167 13.4045 12.1083 13.4045 11.5333C13.4045 9.73333 13.6806 8.99167 12.869 8.79167C12.6012 8.725 12.4004 8.68333 11.7226 8.675C10.8441 8.66667 10.0994 8.675 9.681 8.88333C9.40488 9.025 9.18733 9.325 9.31284 9.34167C9.47182 9.36667 9.84835 9.44167 10.0408 9.70833C10.2918 10.05 10.2834 10.8167 10.2834 10.8167C10.2834 10.8167 10.4341 12.925 9.94876 13.1917C9.61406 13.375 9.16222 13.0083 8.18324 11.325C7.6812 10.4667 7.30467 9.51667 7.30467 9.51667C7.30467 9.51667 7.22937 9.34167 7.10386 9.24167C6.94488 9.125 6.72733 9.08333 6.72733 9.08333L4.39284 9.09167C4.39284 9.09167 4.04141 9.09167 3.9159 9.24167C3.79875 9.375 3.90753 9.63333 3.90753 9.63333C3.90753 9.63333 5.73998 13.85 7.80671 16C9.7061 17.9667 11.8649 17.75 11.8649 17.75H12.8439C12.8439 17.75 13.1367 17.8083 13.2873 17.65C13.4296 17.5 13.4212 17.3167 13.4212 17.3167C13.4212 17.3167 13.4045 16.0083 14.0153 15.8167C14.6177 15.625 15.3875 17.0833 16.2075 17.6333C16.8267 18.0583 17.2953 17.9667 17.2953 17.9667L19.4792 17.9333C19.4792 17.9333 20.6255 17.8667 20.0816 16.9667C20.023 16.9 19.7469 16.3167 18.4416 15.1ZM24.9765 12.5C24.9765 19.3333 19.4122 24.875 12.551 24.875C5.68977 24.875 0.125488 19.3333 0.125488 12.5C0.125488 5.66667 5.68977 0.125 12.551 0.125C19.4122 0.125 24.9765 5.66667 24.9765 12.5Z" fill="white"/>
</svg>
