<svg width="129" height="77" viewBox="0 0 129 77" fill="none" xmlns="http://www.w3.org/2000/svg">
<path d="M108.357 51.3613H102.458L91.6533 75.8208H97.8114L100.375 67.7063L104.406 67.6918L104.704 75.4539H109.504L108.357 51.3613ZM104.704 63.5886H101.622L104.704 57.0285V63.5886Z" fill="#FFC64F"/>
<path d="M1.33057 42.2812L31.6891 43.4881V48.5277L7.75267 46.6113L7.89666 54.8465L13.0468 54.2769L12.9076 58.3269H7.89666L8.10785 76.6461L3.16408 75.5793L1.33057 42.2812Z" fill="#FFC64F"/>
<path d="M21.0918 71.2058V67.1413L35.2607 66.591L34.848 52.4087L15.4761 53.6493L15.8169 75.8206H37.3151L38.4094 70.7955L21.0918 71.2058ZM20.8854 57.0911H30.5378L30.8786 61.4307H20.8854V57.0911Z" fill="#FFC64F"/>
<path d="M57.0563 55.0734L56.5284 50.7241L40.8139 51.9454L40.3579 66.4512L53.7925 65.3795L54.0229 71.0274H43.1706L42.105 75.4587H60.0178L57.8915 60.113L45.3737 60.9433L45.5993 55.2279L57.0563 55.0734Z" fill="#FFC64F"/>
<path d="M35.2451 49.3338L35.5091 43.4012L76.12 42.9185L76.7152 46.534L66.3141 46.4665L68.3684 75.4587H65.3205L61.2119 46.5533L35.2451 49.3338Z" fill="#FFC64F"/>
<path d="M71.6182 57.5596H76.4035V75.8209H72.1845L71.6182 57.5596Z" fill="#FFC64F"/>
<path d="M70.4238 49.7007H76.4043V54.5858H71.619L70.4238 49.7007Z" fill="#FFC64F"/>
<path d="M79.7163 43.8743L80.3499 75.8207H88.7927L96.7459 47.8616L106.739 47.5816L107.089 43.7584L92.5221 43.4736L84.3337 70.4046L84.5017 43.8743H79.7163Z" fill="#FFC64F"/>
<path d="M110.616 41.3206L117.921 40.5869L117.465 71.1576L128.131 69.3136V75.4587L112.277 75.8207L110.616 41.3206Z" fill="#FFC64F"/>
<path d="M17.7153 3.90039L27.7853 4.22381V31.01L43.7829 26.5883L44.2293 38.1977H19.6304L17.7153 3.90039Z" fill="#FFC64F"/>
<path d="M53.3399 13.1925L30.397 12.2319L31.6257 26.7184L37.515 25.7191L36.8863 22.287L47.609 21.4036L47.6714 37.7292L59.0084 37.7244L53.3399 13.1925ZM36.3295 18.85L35.3983 15.5579L46.5386 16.4944L47.1578 18.85H36.3295Z" fill="#FFC64F"/>
<path d="M38.3408 10.002L39.7088 3.90043L82.1964 2.12402L82.7436 7.51118L63.2085 9.55792L69.1698 38.4777L61.9413 38.4439L57.5207 10.1565L38.3408 10.002Z" fill="#FFC64F"/>
<path d="M88.5837 39.1971L84.811 2.38965L94.809 4.17571L101.375 28.9731L99.124 4.12744L106.328 3.68334L106.77 37.3579L96.8153 36.8897L92.5531 18.6718L93.5322 38.1592L88.5837 39.1971Z" fill="#FFC64F"/>
<path d="M126.518 0L108.941 3.74109L110.237 36.7737L128.61 34.5194L126.518 0ZM116.073 29.4315L114.384 9.85233L122.443 10.1951L122.457 26.5786L116.073 29.4315Z" fill="#FFC64F"/>
<path d="M16.3528 23.3734L15.0665 2.72266L0 3.90049L2.03991 37.6378L9.26837 37.6716L7.20926 24.7492L16.3528 23.3734ZM5.41415 10.6682H10.0555L10.6747 18.5124L6.4989 18.4062L5.41415 10.6682Z" fill="#FFC64F"/>
<path d="M82.3971 10.8804L68.041 13.5546L71.9048 37.4204L75.9222 37.3866L73.9351 26.424L79.2965 26.9357L79.9301 39.7374H84.5474L82.3971 10.8804ZM73.4696 22.6201L72.812 16.673L78.0389 15.6497L79.0229 22.9918L73.4696 22.6201Z" fill="#FFC64F"/>
<path d="M32.1583 2.42334L37.2173 3.72186L35.4078 9.73173L30.4448 9.78483L32.1583 2.42334Z" fill="#FFC64F"/>
</svg>
